<?xml version="1.0" standalone="no"?><!DOCTYPE svg PUBLIC "-//W3C//DTD SVG 1.1//EN" "http://www.w3.org/Graphics/SVG/1.1/DTD/svg11.dtd"><svg t="1736156712804" class="icon" viewBox="0 0 1024 1024" version="1.1" xmlns="http://www.w3.org/2000/svg" p-id="1217" id="mx_n_1736156712805" xmlns:xlink="http://www.w3.org/1999/xlink"><path d="M512 0a512 512 0 1 1 0 1024A512 512 0 0 1 512 0z m0 85.357714a426.642286 426.642286 0 1 0 0 853.284572A426.642286 426.642286 0 0 0 512 85.357714z m2.633143 625.883429a43.300571 43.300571 0 1 1 0 86.601143 43.300571 43.300571 0 0 1 0-86.601143z m-0.512-498.102857a184.758857 184.758857 0 0 1 133.851428 56.978285c32.036571 33.792 48.420571 77.312 46.08 122.514286C691.565714 438.857143 677.302857 475.428571 606.281143 546.377143c-35.986286 35.986286-58.660571 62.902857-60.928 86.674286a35.986286 35.986286 0 0 1-35.84 32.475428 36.059429 36.059429 0 0 1-35.84-39.570286c4.827429-49.883429 41.472-90.185143 81.773714-130.486857 64.512-64.512 65.609143-84.992 66.706286-106.788571 1.243429-25.234286-8.045714-49.737143-26.404572-69.046857-20.918857-21.942857-50.468571-34.596571-81.188571-34.596572-59.318857 0.073143-107.52 48.274286-107.52 107.52a35.986286 35.986286 0 1 1-72.045714 0c0-47.908571 18.651429-92.891429 52.443428-126.829714a178.249143 178.249143 0 0 1 126.683429-52.662857z" fill="currentColor" p-id="1218"></path></svg>