<?xml version="1.0" standalone="no"?><!DOCTYPE svg PUBLIC "-//W3C//DTD SVG 1.1//EN" "http://www.w3.org/Graphics/SVG/1.1/DTD/svg11.dtd"><svg t="1706778516787" class="icon" viewBox="0 0 1024 1024" version="1.1" xmlns="http://www.w3.org/2000/svg" p-id="9010" xmlns:xlink="http://www.w3.org/1999/xlink" width="128" height="128"><path d="M512.95 926.29c-90.16 0-175.83-28.55-247.73-82.55-8.68-6.53-10.43-18.85-3.92-27.53 6.53-8.68 18.85-10.42 27.53-3.92 65.05 48.85 142.54 74.68 224.12 74.68s159.07-25.82 224.12-74.68c8.68-6.49 21.04-4.76 27.53 3.92 6.51 8.68 4.76 21-3.92 27.53-71.9 54-157.56 82.55-247.73 82.55zM905.7 552.75c-0.33 0-0.67-0.01-1-0.03-10.85-0.54-19.2-9.77-18.66-20.62 0.31-6.18 0.46-12.4 0.46-18.67 0-118.61-54.47-227.53-149.43-298.88-8.68-6.52-10.43-18.84-3.92-27.52s18.87-10.43 27.53-3.91c104.94 78.83 165.14 199.22 165.14 330.31 0 6.92-0.15 13.81-0.5 20.65-0.54 10.5-9.21 18.67-19.62 18.67zM120.21 552.75c-9.37 0-17.66-6.71-19.33-16.24-1.19-6.65-1.02-12.83-0.88-18.29l0.1-4.79c0-131.08 60.19-251.48 165.14-330.31 8.68-6.52 21.02-4.77 27.53 3.91 6.51 8.68 4.76 21-3.92 27.52-94.96 71.35-149.43 180.27-149.43 298.88l-0.1 5.83c-0.12 3.95-0.21 7.67 0.27 10.42 1.9 10.69-5.24 20.89-15.94 22.78-1.16 0.19-2.31 0.29-3.44 0.29zM512.86 338.67c-66.25 0-120.14-53.9-120.14-120.15S446.61 98.38 512.86 98.38 633 152.28 633 218.52c0 66.25-53.89 120.15-120.14 120.15z m0-196.6c-42.16 0-76.46 34.29-76.46 76.45s34.31 76.46 76.46 76.46 76.46-34.3 76.46-76.46-34.3-76.45-76.46-76.45zM807.86 790.86c-66.25 0-120.14-53.9-120.14-120.15s53.89-120.15 120.14-120.15c66.24 0 120.13 53.9 120.13 120.15S874.1 790.86 807.86 790.86z m0-196.61c-42.16 0-76.46 34.3-76.46 76.46s34.31 76.46 76.46 76.46c42.16 0 76.45-34.3 76.45-76.46 0.01-42.16-34.29-76.46-76.45-76.46zM218.05 790.86c-66.25 0-120.14-53.9-120.14-120.15s53.89-120.15 120.14-120.15 120.14 53.9 120.14 120.15-53.89 120.15-120.14 120.15z m0-196.61c-42.16 0-76.46 34.3-76.46 76.46s34.31 76.46 76.46 76.46 76.46-34.3 76.46-76.46c0.01-42.16-34.3-76.46-76.46-76.46z" fill="#f26522" p-id="9011"></path><path d="M316.35 690.37h393.21v39.32H316.35z" fill="#f26522" p-id="9012"></path><path d="M262.628 583.818l176.85-306.304 34.051 19.66-176.85 306.304zM729.02 603.487L552.17 297.182l34.05-19.66 176.85 306.305z" fill="#f26522" p-id="9013"></path></svg>