<?xml version="1.0" standalone="no"?><!DOCTYPE svg PUBLIC "-//W3C//DTD SVG 1.1//EN" "http://www.w3.org/Graphics/SVG/1.1/DTD/svg11.dtd"><svg t="1706779429936" class="icon" viewBox="0 0 1024 1024" version="1.1" xmlns="http://www.w3.org/2000/svg" p-id="2310" xmlns:xlink="http://www.w3.org/1999/xlink" width="128" height="128"><path d="M294.05 754.28c-4.61 0-9.21-1.76-12.73-5.27-7.03-7.03-7.03-18.43 0-25.46L465.27 539.6 281.32 355.64c-7.03-7.03-7.03-18.43 0-25.46 7.03-7.03 18.43-7.03 25.46 0l189.65 189.65c5.27 5.27 8.17 12.29 8.17 19.76s-2.9 14.49-8.17 19.76L306.78 749.01a17.986 17.986 0 0 1-12.73 5.27z m176.92-208.99h0.01-0.01z" p-id="2311" fill="#f26320"></path><path d="M908.83 926.22H118.08c-29.78 0-54-24.22-54-54V149.87c0-29.78 24.22-54 54-54h790.74c29.78 0 54 24.22 54 54v722.35c0.01 29.77-24.22 54-53.99 54zM118.08 131.87c-9.93 0-18 8.07-18 18v722.35c0 9.93 8.07 18 18 18h790.74c9.93 0 18-8.07 18-18V149.87c0-9.93-8.07-18-18-18H118.08z" p-id="2312" fill="#f26320"></path><path d="M928.2 254.66H82.08c-9.94 0-18-8.06-18-18s8.06-18 18-18H928.2c9.94 0 18 8.06 18 18s-8.06 18-18 18zM791.27 760.73H579.75c-9.94 0-18-8.06-18-18s8.06-18 18-18h211.52c9.94 0 18 8.06 18 18s-8.06 18-18 18z" p-id="2313" fill="#f26320"></path></svg>