<?xml version="1.0" standalone="no"?><!DOCTYPE svg PUBLIC "-//W3C//DTD SVG 1.1//EN" "http://www.w3.org/Graphics/SVG/1.1/DTD/svg11.dtd"><svg t="1706778438016" class="icon" viewBox="0 0 1024 1024" version="1.1" xmlns="http://www.w3.org/2000/svg" p-id="6105" xmlns:xlink="http://www.w3.org/1999/xlink" width="128" height="128"><path d="M299.20403 634.518892C232.141058 634.518892 165.078086 722.216625 100.594458 897.612091c-2.579345 7.738035 0 15.476071 5.158691 20.63476 5.15869 5.15869 10.31738 5.15869 15.47607 5.158691H128.967254c159.919395-59.324937 247.617128-118.649874 260.513854-180.554157 5.15869-20.634761 2.579345-49.007557-25.793451-79.959697-20.634761-20.634761-43.848866-28.372796-64.483627-28.372796z m49.007557 98.015113c-2.579345 15.476071-15.476071 38.690176-59.324937 67.062972-33.531486 23.214106-77.380353 43.848866-131.5466 67.062973C180.554156 804.755668 206.347607 758.327456 232.141058 724.79597c25.793451-33.531486 49.007557-51.586902 69.642317-51.586902 10.31738 0 23.214106 5.15869 33.531486 15.476071 10.31738 15.476071 15.476071 30.952141 12.896726 43.848866z m306.942065-263.093199c56.745592 0 103.173804-46.428212 103.173804-103.173803s-46.428212-103.173804-103.173804-103.173804-103.173804 46.428212-103.173803 103.173804 46.428212 103.173804 103.173803 103.173803z m0-165.078086c33.531486 0 61.904282 28.372796 61.904283 61.904283 0 33.531486-28.372796 61.904282-61.904283 61.904282-33.531486 0-61.904282-28.372796-61.904282-61.904282 0-33.531486 28.372796-61.904282 61.904282-61.904283z m247.617129-206.347607c-108.332494 0-203.768262 18.055416-283.72796 54.166247-67.062972 28.372796-123.808564 72.221662-170.236776 123.808564-7.738035 10.31738-15.476071 20.634761-23.214105 28.372796-36.110831 2.579345-72.221662 15.476071-108.332494 41.269522-30.952141 20.634761-61.904282 51.586902-92.856423 90.277078-51.586902 61.904282-82.539043 123.808564-82.539043 126.387909-5.15869 10.31738-2.579345 20.634761 5.15869 25.793451 5.15869 5.15869 10.31738 5.15869 12.896725 5.15869 5.15869 0 10.31738-2.579345 15.476071-5.15869 0 0 20.634761-20.634761 54.166247-38.690176 28.372796-15.476071 69.642317-33.531486 121.229219-38.690177 12.896725 33.531486 51.586902 74.801008 69.642317 90.277079 18.055416 18.055416 56.745592 54.166247 90.277078 69.642317-2.579345 51.586902-20.634761 95.435768-38.690176 121.229219-18.055416 33.531486-38.690176 54.166247-38.690176 54.166247-7.738035 7.738035-7.738035 18.055416-2.579345 25.793451 5.15869 5.15869 10.31738 7.738035 18.055415 7.738035 2.579345 0 5.15869 0 10.317381-2.579345 2.579345 0 64.483627-33.531486 126.387909-82.539043 38.690176-30.952141 67.062972-61.904282 90.277078-92.856423 25.793451-36.110831 38.690176-72.221662 41.269522-108.332494 10.31738-7.738035 20.634761-15.476071 28.372795-23.214106 51.586902-46.428212 92.856423-103.173804 123.808565-170.236775 36.110831-79.959698 54.166247-175.395466 54.166247-283.72796v-18.055416H902.770781zM348.211587 472.020151c-49.007557 2.579345-90.277078 18.055416-121.229219 33.531486 38.690176-56.745592 100.594458-128.967254 167.65743-149.602015-25.793451 43.848866-41.269521 87.697733-46.428211 116.070529z m170.236776 324.997481c15.476071-33.531486 30.952141-74.801008 33.531486-121.229219 28.372796-5.15869 69.642317-18.055416 116.070529-46.428211-20.634761 67.062972-90.277078 126.387909-149.602015 167.65743z m201.188917-255.355163c-85.118388 74.801008-175.395466 92.856423-188.292192 92.856423 0 0-7.738035 0-30.952141-15.476071-15.476071-10.31738-33.531486-28.372796-51.586902-43.848866-18.055416-18.055416-33.531486-36.110831-43.848866-51.586902-18.055416-23.214106-18.055416-33.531486-18.055416-33.531486 0-12.896725 18.055416-100.594458 92.856423-188.292192 90.277078-103.173804 229.561713-159.919395 402.377834-162.49874-2.579345 175.395466-59.324937 312.100756-162.49874 402.377834z" fill="#f26522" p-id="6106"></path></svg>